<mxfile host="app.diagrams.net" agent="Mozilla/5.0 (Windows NT 10.0; Win64; x64) AppleWebKit/537.36 (KHTML, like Gecko) Chrome/132.0.0.0 Safari/537.36 Edg/132.0.0.0" version="26.0.11">
  <diagram name="第 1 页" id="OdamMvReSj_Lz3j70eH5">
    <mxGraphModel>
      <root>
        <mxCell id="0" />
        <mxCell id="1" parent="0" />
        <mxCell id="2" value="微短剧审核与管理流程" style="whiteSpace=wrap;strokeWidth=2;" vertex="1" parent="1">
          <mxGeometry x="201" y="8" width="220" height="54" as="geometry" />
        </mxCell>
        <mxCell id="3" value="审核" style="rounded=1;arcSize=20;strokeWidth=2" vertex="1" parent="1">
          <mxGeometry x="280" y="135" width="62" height="54" as="geometry" />
        </mxCell>
        <mxCell id="4" value="分配资源" style="rounded=1;arcSize=20;strokeWidth=2" vertex="1" parent="1">
          <mxGeometry x="157" y="262" width="94" height="54" as="geometry" />
        </mxCell>
        <mxCell id="5" value="重新提交" style="rounded=1;arcSize=20;strokeWidth=2" vertex="1" parent="1">
          <mxGeometry x="304" y="262" width="94" height="54" as="geometry" />
        </mxCell>
        <mxCell id="6" value="发布" style="rounded=1;arcSize=20;strokeWidth=2" vertex="1" parent="1">
          <mxGeometry x="37" y="389" width="62" height="54" as="geometry" />
        </mxCell>
        <mxCell id="7" value="重新分配资源" style="rounded=1;arcSize=20;strokeWidth=2" vertex="1" parent="1">
          <mxGeometry x="149" y="389" width="126" height="54" as="geometry" />
        </mxCell>
        <mxCell id="8" value="完结" style="rounded=1;arcSize=20;strokeWidth=2" vertex="1" parent="1">
          <mxGeometry x="8" y="516" width="62" height="54" as="geometry" />
        </mxCell>
        <mxCell id="9" value="重新发布" style="rounded=1;arcSize=20;strokeWidth=2" vertex="1" parent="1">
          <mxGeometry x="265" y="516" width="94" height="54" as="geometry" />
        </mxCell>
        <mxCell id="10" value="结束" style="rounded=1;arcSize=20;strokeWidth=2" vertex="1" parent="1">
          <mxGeometry x="8" y="643" width="62" height="54" as="geometry" />
        </mxCell>
        <mxCell id="11" value="归档" style="rounded=1;arcSize=20;strokeWidth=2" vertex="1" parent="1">
          <mxGeometry x="8" y="770" width="62" height="54" as="geometry" />
        </mxCell>
        <mxCell id="12" value="存档" style="rounded=1;arcSize=20;strokeWidth=2" vertex="1" parent="1">
          <mxGeometry x="8" y="897" width="62" height="54" as="geometry" />
        </mxCell>
        <mxCell id="13" value="提交申请" style="curved=1;startArrow=none;endArrow=block;exitX=0.5;exitY=1;entryX=0.5;entryY=0;" edge="1" parent="1" source="2" target="3">
          <mxGeometry relative="1" as="geometry">
            <Array as="points" />
          </mxGeometry>
        </mxCell>
        <mxCell id="14" value="通过" style="curved=1;startArrow=none;endArrow=block;exitX=0;exitY=0.84;entryX=0.5;entryY=0;" edge="1" parent="1" source="3" target="4">
          <mxGeometry relative="1" as="geometry">
            <Array as="points">
              <mxPoint x="204" y="226" />
            </Array>
          </mxGeometry>
        </mxCell>
        <mxCell id="15" value="未通过" style="curved=1;startArrow=none;endArrow=block;exitX=0.22;exitY=1;entryX=0.14;entryY=0;" edge="1" parent="1" source="3" target="5">
          <mxGeometry relative="1" as="geometry">
            <Array as="points">
              <mxPoint x="270" y="226" />
            </Array>
          </mxGeometry>
        </mxCell>
        <mxCell id="16" value="完成" style="curved=1;startArrow=none;endArrow=block;exitX=0;exitY=0.9;entryX=0.5;entryY=0;" edge="1" parent="1" source="4" target="6">
          <mxGeometry relative="1" as="geometry">
            <Array as="points">
              <mxPoint x="68" y="353" />
            </Array>
          </mxGeometry>
        </mxCell>
        <mxCell id="17" value="失败" style="curved=1;startArrow=none;endArrow=block;exitX=0.34;exitY=1;entryX=0.35;entryY=0;" edge="1" parent="1" source="4" target="7">
          <mxGeometry relative="1" as="geometry">
            <Array as="points">
              <mxPoint x="169" y="353" />
            </Array>
          </mxGeometry>
        </mxCell>
        <mxCell id="18" value="重新提交" style="curved=1;startArrow=none;endArrow=block;exitX=0.5;exitY=0;entryX=0.77;entryY=1;" edge="1" parent="1" source="5" target="3">
          <mxGeometry relative="1" as="geometry">
            <Array as="points">
              <mxPoint x="351" y="226" />
            </Array>
          </mxGeometry>
        </mxCell>
        <mxCell id="19" value="重新分配" style="curved=1;startArrow=none;endArrow=block;exitX=0.63;exitY=0;entryX=0.71;entryY=1;" edge="1" parent="1" source="7" target="4">
          <mxGeometry relative="1" as="geometry">
            <Array as="points">
              <mxPoint x="251" y="353" />
            </Array>
          </mxGeometry>
        </mxCell>
        <mxCell id="20" value="成功" style="curved=1;startArrow=none;endArrow=block;exitX=0.3;exitY=1;entryX=0.5;entryY=0;" edge="1" parent="1" source="6" target="8">
          <mxGeometry relative="1" as="geometry">
            <Array as="points">
              <mxPoint x="39" y="480" />
            </Array>
          </mxGeometry>
        </mxCell>
        <mxCell id="21" value="失败" style="curved=1;startArrow=none;endArrow=block;exitX=1;exitY=0.81;entryX=0;entryY=0.06;" edge="1" parent="1" source="6" target="9">
          <mxGeometry relative="1" as="geometry">
            <Array as="points">
              <mxPoint x="186" y="480" />
            </Array>
          </mxGeometry>
        </mxCell>
        <mxCell id="22" value="重新发布" style="curved=1;startArrow=none;endArrow=block;exitX=0.65;exitY=0;entryX=1;entryY=0.9;" edge="1" parent="1" source="9" target="4">
          <mxGeometry relative="1" as="geometry">
            <Array as="points">
              <mxPoint x="344" y="480" />
              <mxPoint x="344" y="353" />
            </Array>
          </mxGeometry>
        </mxCell>
        <mxCell id="23" value="结束" style="curved=1;startArrow=none;endArrow=block;exitX=0.5;exitY=1;entryX=0.5;entryY=0;" edge="1" parent="1" source="8" target="10">
          <mxGeometry relative="1" as="geometry">
            <Array as="points" />
          </mxGeometry>
        </mxCell>
        <mxCell id="24" value="归档" style="curved=1;startArrow=none;endArrow=block;exitX=0.5;exitY=1;entryX=0.5;entryY=0;" edge="1" parent="1" source="10" target="11">
          <mxGeometry relative="1" as="geometry">
            <Array as="points" />
          </mxGeometry>
        </mxCell>
        <mxCell id="25" value="存档" style="curved=1;startArrow=none;endArrow=block;exitX=0.5;exitY=1;entryX=0.5;entryY=0;" edge="1" parent="1" source="11" target="12">
          <mxGeometry relative="1" as="geometry">
            <Array as="points" />
          </mxGeometry>
        </mxCell>
      </root>
    </mxGraphModel>
  </diagram>
</mxfile>
